<?xml version="1.0" encoding="utf-8"?>
<!-- Generator: Adobe Illustrator 18.0.0, SVG Export Plug-In . SVG Version: 6.00 Build 0)  -->
<!DOCTYPE svg PUBLIC "-//W3C//DTD SVG 1.1//EN" "http://www.w3.org/Graphics/SVG/1.1/DTD/svg11.dtd">
<svg version="1.1" id="Layer_1" xmlns="http://www.w3.org/2000/svg" xmlns:xlink="http://www.w3.org/1999/xlink" x="0px" y="0px"
	 viewBox="0 0 100 100" enable-background="new 0 0 100 100" xml:space="preserve">
<g>
	<path d="M46.4,3.6v35.7c0,2.3-0.7,4.3-2,6.2s-3.1,3.2-5.3,3.9v43.5c0,1.9-0.7,3.6-2.2,5s-3.1,2.1-5.1,2.1h-7.3
		c-2,0-3.7-0.7-5.1-2.1s-2.2-3.1-2.2-5V49.4c-2.2-0.7-3.9-2-5.3-3.9c-1.3-1.9-2-3.9-2-6.2V3.6c0-1,0.4-1.8,1.1-2.5
		C11.7,0.4,12.7,0,13.6,0c0.9,0,1.8,0.4,2.6,1.1c0.7,0.7,1.1,1.5,1.1,2.5v23.2c0,1,0.4,1.8,1.1,2.5s1.6,1.1,2.6,1.1s1.8-0.4,2.6-1.1
		c0.7-0.7,1.1-1.5,1.1-2.5V3.6c0-1,0.4-1.8,1.1-2.5C26.3,0.4,27.2,0,28.2,0s1.8,0.4,2.6,1.1c0.7,0.7,1.1,1.5,1.1,2.5v23.2
		c0,1,0.4,1.8,1.1,2.5c0.7,0.7,1.6,1.1,2.6,1.1s1.8-0.4,2.6-1.1c0.7-0.7,1.1-1.5,1.1-2.5V3.6c0-1,0.4-1.8,1.1-2.5
		C40.9,0.4,41.7,0,42.7,0s1.8,0.4,2.6,1.1C46,1.8,46.4,2.6,46.4,3.6z M90,3.6v89.3c0,1.9-0.7,3.6-2.2,5c-1.4,1.4-3.1,2.1-5.1,2.1
		h-7.3c-2,0-3.7-0.7-5.1-2.1c-1.4-1.4-2.2-3.1-2.2-5V64.3H55.5c-0.5,0-0.9-0.2-1.3-0.5c-0.4-0.4-0.5-0.8-0.5-1.3V17.9
		c0-4.9,1.8-9.1,5.3-12.6C62.5,1.7,66.8,0,71.8,0h14.5c1,0,1.8,0.4,2.6,1.1C89.6,1.8,90,2.6,90,3.6z"/>
</g>
</svg>
