<?xml version="1.0" encoding="utf-8"?>
<!-- Generator: Adobe Illustrator 18.0.0, SVG Export Plug-In . SVG Version: 6.00 Build 0)  -->
<!DOCTYPE svg PUBLIC "-//W3C//DTD SVG 1.1//EN" "http://www.w3.org/Graphics/SVG/1.1/DTD/svg11.dtd">
<svg version="1.1" id="Layer_1" xmlns="http://www.w3.org/2000/svg" xmlns:xlink="http://www.w3.org/1999/xlink" x="0px" y="0px"
	 viewBox="0 0 100 100" enable-background="new 0 0 100 100" xml:space="preserve">
<g>
	<path fill="#010101" d="M0.6,81.8h96c0,5-1.3,9.3-4,12.9c-2.7,3.6-5.9,5.3-9.7,5.3H14.4c-3.8,0-7-1.8-9.7-5.3
		C2,91.1,0.6,86.8,0.6,81.8z M94,8c4,5.3,6,11.8,6,19.3s-2,14-6,19.3c-4,5.3-8.9,8-14.5,8h-3.4v2.3c0,4.4-1.2,8.1-3.5,11.2
		c-2.4,3.1-5.2,4.7-8.5,4.7H26.4c-3.3,0-6.1-1.6-8.5-4.7s-3.5-6.9-3.5-11.2V4.5c0-1.2,0.3-2.3,1-3.2C16,0.5,16.9,0,17.8,0h61.7
		C85.2,0,90,2.7,94,8z M86.8,36.9c2-2.7,3-5.9,3-9.7s-1-7-3-9.7c-2-2.7-4.4-4-7.3-4h-3.4v27.3h3.4C82.4,40.9,84.8,39.6,86.8,36.9z"
		/>
</g>
</svg>
