<svg xmlns="http://www.w3.org/2000/svg" version="1.1" x="0" y="0" viewBox="0 0 760 320" enable-background="new 0 0 760 320" xml:space="preserve"><path d="M502.3 111.7c0 13.7-2.1 25-6.2 33.8l-68.7 146c-2 4.1-5 7.4-9 9.8 -4 2.4-8.2 3.6-12.7 3.6 -4.5 0-8.8-1.2-12.7-3.6 -4-2.4-6.9-5.7-8.8-9.8l-68.9-146c-4.2-8.8-6.2-20.1-6.2-33.8 0-26.7 9.4-49.4 28.3-68.3 18.9-18.9 41.6-28.3 68.3-28.3 26.7 0 49.4 9.4 68.3 28.3C492.9 62.3 502.3 85.1 502.3 111.7zM443.3 149.3c10.4-10.4 15.6-22.9 15.6-37.6s-5.2-27.2-15.6-37.6c-10.4-10.4-22.9-15.6-37.6-15.6 -14.7 0-27.2 5.2-37.6 15.6 -10.3 10.4-15.6 22.9-15.6 37.6s5.2 27.2 15.6 37.6c10.4 10.4 22.9 15.6 37.6 15.6C420.4 164.8 432.9 159.6 443.3 149.3z"/><path d="M13.2 146.2h14.5V63.7H13.2V40.2h60.6c10.2 0 16.5 0.4 23.8 2.7 13.6 4.7 22.7 16 22.7 31 0 11.2-5.3 22.1-15.4 27.7v0.4c15.4 4.7 20.7 17.4 20.7 29.7 0 19.6-13.6 32.5-28.8 36.3 -6.9 1.6-12.3 1.8-19.4 1.8h-64V146.2zM76.1 90.4c8 0 11.4-5.6 11.4-12.5 0-4.5-1.8-9.4-6-11.2 -2.4-0.9-4.5-1.1-8-1.1H60.2v24.8H76.1zM78.8 144.4c2.4 0 4.4-0.4 6-1.1 5.1-2.2 7.8-8.2 7.8-14.1 0-7.6-4.4-13.4-13.6-13.4H60.2v28.6H78.8zM134.9 146.2H149l6.9-82.5h-14.5V40.2h50.9l21.8 64.2c2.7 8 3.6 13.4 3.6 13.4h0.4c0 0 0.9-5.4 3.6-13.4l21.8-64.2h50.9v23.6h-14.5l6.9 82.5h14.1v23.6h-58.7v-23.6h12.9L252 99.6c-0.4-5.4 0.7-14.5 0.7-14.5H252c0 0-1.5 8.3-3.4 13.8l-17 47.3h-27.2l-17-47.3c-2-5.4-3.4-13.8-3.4-13.8h-0.7c0 0 1.1 9.1 0.7 14.5l-3.1 46.6h12.9v23.6h-58.7V146.2z"/><path d="M510.6 145.7h14.5V63.2h-14.5V39.6h58.6c9.8 0 18.5 0.4 25.9 2.5 15.6 4.7 25.9 17.4 25.9 36.4 0 17-8.2 28.6-21 35.5v0.4c0 0 5.1 2.2 8 7.8l10 19.2c1.6 3.1 4.2 4.2 8.3 4.2h4.5v23.6h-21.4c-10.5 0-14.7-2.5-18.3-9.6l-15.8-30.3c-2.2-4.2-4.5-5.6-11.2-5.6h-6.5v21.9h13.6v23.6h-60.6V145.7zM572.2 98.3c10.2 0 16.5-5.1 16.5-16.9 0-6-1.5-11.6-7.1-14.3 -2.9-1.5-7.1-2.2-12.5-2.2h-11.6v33.4H572.2zM644.7 145.7h14.5V63.2h-14.5V39.6h99.9v38.3h-27.2V65h-25.7v26.3h37.9v25.4h-37.9v27.2h27.9V131h27.2v38.3H644.7V145.7z"/><path d="M534.4 185.7c6.3 0 19.4 2.4 19.4 10.3v5.5h-4.9v-4.1c0-5.1-8.9-7.1-14.2-7.1 -12 0-21.1 9.2-21.1 21.7 0 12.9 9.1 22.7 21.4 22.7 4.2 0 14.7-1.6 14.7-7.1v-4.1h5v5.5c0 7.5-12.6 10.3-19.8 10.3 -15.5 0-26.7-12.1-26.7-27.2C508.1 197 519.5 185.7 534.4 185.7zM562.9 234.2h6.8v-43.4h-6.8v-4.3h18.8v4.3h-6.8v43.4h6.8v4.3h-18.8V234.2zM600.4 234.2h6.8V191h-14.6v8.4H588v-12.9h43.6v12.9h-4.7V191h-14.5v43.2h6.8v4.3h-18.8V234.2zM648.4 234.2h6.8v-18l-15.3-25.3h-5.1v-4.3h16.4v4.3h-5.8l11.2 18.9c0.5 0.9 1 2 1 2h0.1c0 0 0.4-1 1-2l11.3-18.9h-5.8v-4.3h16.3v4.3h-5.1l-15.3 25.3v18h6.8v4.3h-18.8V234.2zM535.1 249.6c8.9 0 19.6 3.7 19.6 10.2v5.7h-4.9v-3.9c0-4.9-8-7.3-14.6-7.3 -13.2 0-21.6 9.3-21.6 22.1 0 12.8 8.6 22.3 21.6 22.3 5.2 0 15.9-1.6 15.9-7.5V283h-10.9v-4.3h15.7v13.6c0 8.1-13 11-20.8 11 -16 0-26.9-11.6-26.9-26.9S519 249.6 535.1 249.6zM568 254.8h-6.8v-4.3H580v4.3h-6.8v28.4c0 3.8 0.7 7.1 2.3 9.5 2.4 3.8 6.9 5.8 12.5 5.8 5.5 0 10.2-2.1 12.5-6.1 1.5-2.5 2.3-5.7 2.3-9.5v-28.3h-6.8v-4.3h18.8v4.3h-6.8v28.5c0 4.8-1.2 9.2-3.3 12.3 -3.4 5-9.5 7.8-16.6 7.8 -7.2 0-13.4-2.8-16.8-7.8 -2.2-3.3-3.2-7.3-3.2-12.2V254.8zM621.1 298.1h6.8v-43.4h-6.8v-4.3h18.8v4.3h-6.8v43.4h6.8v4.3h-18.8V298.1zM647.9 298.1h6.8v-43.4h-6.8v-4.3h21.9c4.4 0 7.6 0.3 11.1 1.3 9.8 3.2 16 12.1 16 24.7 0 12.8-6.4 21.6-16.7 24.7 -3.2 1-6.6 1.3-10.4 1.3h-21.9V298.1zM669.4 298c3.5 0 6.4-0.3 9.2-1.3 7.9-2.6 12.9-9.8 12.9-20.2 0-10.3-4.8-17.7-12.6-20.4 -3-1-6-1.2-9.6-1.2h-9.5V298H669.4zM704.7 298.1h6.8v-43.4h-6.8v-4.3h36.7v10.8h-4.7v-6.4h-20V274h19.7v4.4h-19.7V298h21.4v-6.7h4.7v11.2h-38V298.1z"/></svg>